<svg width="408" height="552" viewBox="0 0 408 552" xmlns="http://www.w3.org/2000/svg" xmlns:xlink="http://www.w3.org/1999/xlink">
    <defs>
        <linearGradient x1="100%" y1="50%" x2="0%" y2="50%" id="0ensgcqxkb">
            <stop stop-color="#66A5FF" offset="0%"/>
            <stop stop-color="#89F6FD" offset="100%"/>
        </linearGradient>
        <linearGradient x1="62.503%" y1="8.183%" x2="40.039%" y2="70.638%" id="dr89wurmse">
            <stop stop-color="#146AFE" offset="0%"/>
            <stop stop-color="#002F9C" offset="34.517%"/>
            <stop stop-color="#001F6C" offset="68.411%"/>
            <stop stop-color="#001241" offset="100%"/>
        </linearGradient>
        <linearGradient x1="64.032%" y1="24.12%" x2="35.609%" y2="59.124%" id="j2pvgwajig">
            <stop stop-color="#146AFE" offset="0%"/>
            <stop stop-color="#002F9C" offset="29.02%"/>
            <stop stop-color="#001F6C" offset="62.741%"/>
            <stop stop-color="#001241" offset="100%"/>
        </linearGradient>
        <linearGradient x1="77.472%" y1="-19.965%" x2="34.283%" y2="55.456%" id="tsnriwddlh">
            <stop stop-color="#E50044" offset="0%"/>
            <stop stop-color="#A20E5E" offset="29.02%"/>
            <stop stop-color="#5E1B78" offset="62.072%"/>
            <stop stop-color="#001241" offset="100%"/>
        </linearGradient>
        <linearGradient x1="66.35%" y1="2.07%" x2="37.902%" y2="69.335%" id="bnt390qxmi">
            <stop stop-color="#146AFE" offset="0%"/>
            <stop stop-color="#002F9C" offset="29.02%"/>
            <stop stop-color="#001F6C" offset="62.741%"/>
            <stop stop-color="#001241" offset="100%"/>
        </linearGradient>
        <linearGradient x1="-4.122%" y1="82.965%" x2="43.358%" y2="1.858%" id="9gjcboyj9j">
            <stop stop-color="#E50044" offset="0%"/>
            <stop stop-color="#A20E5E" offset="29.02%"/>
            <stop stop-color="#5E1B78" offset="62.072%"/>
            <stop stop-color="#001241" offset="100%"/>
        </linearGradient>
        <linearGradient x1="59.595%" y1="2.869%" x2="29.931%" y2="89.889%" id="jpjpf9xljm">
            <stop stop-color="#146AFE" offset="0%"/>
            <stop stop-color="#002F9C" offset="29.02%"/>
            <stop stop-color="#001F6C" offset="62.741%"/>
            <stop stop-color="#001241" offset="100%"/>
        </linearGradient>
        <linearGradient x1="202.822%" y1="104.19%" x2="-102.282%" y2="28.541%" id="1dizf8ra4o">
            <stop stop-color="#E50044" offset="0%"/>
            <stop stop-color="#A20E5E" offset="29.02%"/>
            <stop stop-color="#5E1B78" offset="62.072%"/>
            <stop stop-color="#001241" offset="100%"/>
        </linearGradient>
        <linearGradient x1="202.822%" y1="106.4%" x2="-102.282%" y2="27.666%" id="ity6m082bp">
            <stop stop-color="#E50044" offset="0%"/>
            <stop stop-color="#A20E5E" offset="29.02%"/>
            <stop stop-color="#5E1B78" offset="62.072%"/>
            <stop stop-color="#001241" offset="100%"/>
        </linearGradient>
        <linearGradient x1="202.822%" y1="104.185%" x2="-102.282%" y2="28.543%" id="6pcib8mtlq">
            <stop stop-color="#E50044" offset="0%"/>
            <stop stop-color="#A20E5E" offset="29.02%"/>
            <stop stop-color="#5E1B78" offset="62.072%"/>
            <stop stop-color="#001241" offset="100%"/>
        </linearGradient>
        <linearGradient x1="202.822%" y1="116.832%" x2="-102.282%" y2="23.535%" id="avrf89w83r">
            <stop stop-color="#E50044" offset="0%"/>
            <stop stop-color="#A20E5E" offset="29.02%"/>
            <stop stop-color="#5E1B78" offset="62.072%"/>
            <stop stop-color="#001241" offset="100%"/>
        </linearGradient>
        <linearGradient x1="202.822%" y1="105.644%" x2="-102.282%" y2="27.965%" id="e7vmflll5s">
            <stop stop-color="#E50044" offset="0%"/>
            <stop stop-color="#A20E5E" offset="29.02%"/>
            <stop stop-color="#5E1B78" offset="62.072%"/>
            <stop stop-color="#001241" offset="100%"/>
        </linearGradient>
        <linearGradient x1="202.822%" y1="105.049%" x2="-102.282%" y2="28.201%" id="sr7lz4xrtt">
            <stop stop-color="#E50044" offset="0%"/>
            <stop stop-color="#A20E5E" offset="29.02%"/>
            <stop stop-color="#5E1B78" offset="62.072%"/>
            <stop stop-color="#001241" offset="100%"/>
        </linearGradient>
        <linearGradient x1="202.822%" y1="111.411%" x2="-102.282%" y2="25.682%" id="0pwp0742ou">
            <stop stop-color="#E50044" offset="0%"/>
            <stop stop-color="#A20E5E" offset="29.02%"/>
            <stop stop-color="#5E1B78" offset="62.072%"/>
            <stop stop-color="#001241" offset="100%"/>
        </linearGradient>
        <path d="M.456 11.107 0 171.947c-.028 9.95 6.961 22.077 15.617 27.077l280.208 161.83c2.5 1.442 4.867 2.134 6.967 2.146h.1c5.115-.022 8.631-4.097 8.652-11.127L312 191.034c.026-9.93-6.963-22.058-15.617-27.056L16.177 2.148C13.652.69 11.266 0 9.15 0 4.013 0 .477 4.07.456 11.107" id="dw30ivqwha"/>
        <path d="M.456 11.107 0 171.947c-.028 9.95 6.961 22.077 15.617 27.077l280.208 161.83c2.5 1.442 4.867 2.134 6.967 2.146h.1c5.115-.022 8.631-4.097 8.652-11.127L312 191.034c.026-9.93-6.963-22.058-15.617-27.056L16.177 2.148C13.652.69 11.266 0 9.15 0 4.013 0 .477 4.07.456 11.107" id="jk9kxvhind"/>
        <path id="ujbbgenj6k" d="M0 0h2.877v169.41H0z"/>
        <path id="491mew6r1l" d="M0 143.501 214 267V123.499L0 0z"/>
    </defs>
    <g fill="none" fill-rule="evenodd">
        <g transform="translate(96)">
            <mask id="xs4tkisi2c" fill="#fff">
                <use xlink:href="#dw30ivqwha"/>
            </mask>
            <path d="M.456 11.107 0 171.947c-.028 9.95 6.961 22.077 15.617 27.077l280.208 161.83c2.5 1.442 4.867 2.134 6.967 2.146h.1c5.115-.022 8.631-4.097 8.652-11.127L312 191.034c.026-9.93-6.963-22.058-15.617-27.056L16.177 2.148C13.652.69 11.266 0 9.15 0 4.013 0 .477 4.07.456 11.107" fill="url(#0ensgcqxkb)" mask="url(#xs4tkisi2c)"/>
        </g>
        <g transform="translate(96)">
            <mask id="qf8q4dc6ef" fill="#fff">
                <use xlink:href="#jk9kxvhind"/>
            </mask>
            <path d="M.456 11.107 0 171.947c-.028 9.95 6.961 22.077 15.617 27.077l280.208 161.83c2.5 1.442 4.867 2.134 6.967 2.146h.1c5.115-.022 8.631-4.097 8.652-11.127L312 191.034c.026-9.93-6.963-22.058-15.617-27.056L16.177 2.148C13.652.69 11.266 0 9.15 0 4.013 0 .477 4.07.456 11.107" fill="url(#dr89wurmse)" mask="url(#qf8q4dc6ef)"/>
        </g>
        <path d="M282.39 175.075c-16.306 4.142-59.359 20.863-87.595 4.57-24.894-14.365-42.847-39.83-53.198-56.468-1.055-1.73-2.038-3.35-2.955-4.862-2.724-4.527-6.777-11.373-11.703-19.158-12.57-19.866-30.869-45.918-47.333-55.42C50.428 26.903 13.126 53.99 1.536 59.96L1.444 90.28c-.046 9.908 6.917 21.957 15.55 26.938l279.068 161.027c8.634 4.981 15.619.979 15.663-8.929l.275-96.813c-10.649-1.088-20.542.254-29.61 2.573" fill="url(#j2pvgwajig)" transform="translate(96 82.614)"/>
        <path d="m311.278 225.9-.115 43.439c-.045 9.886-7.034 13.88-15.671 8.91L16.28 117.569C7.643 112.599.676 100.575.722 90.689L.975 1.445C6.978 5.082 15.5 18.483 25.766 34.667c.413.65.825 1.321 1.237 1.97 15.833 24.96 35.63 55.741 56.616 67.82 32.445 18.67 83.08-35.366 106.336-21.981 8.547 4.918 16.176 14.468 23.464 26.04 10.907 17.33 20.987 39.185 32.053 56.654 5.157 8.173 10.541 15.383 16.314 20.738 15.857 14.697 32.88 29.657 49.492 39.992" fill="url(#tsnriwddlh)" transform="translate(96 82.614)"/>
        <path d="M406.065 309.524c-17.145-10.712-34.685-26.325-49.584-40.186-12.15-11.303-22.635-30.889-32.773-49.83-11.893-22.213-24.192-45.185-38.744-53.582-10.122-5.846-26.441 2.168-43.717 10.646-20.81 10.21-44.396 21.784-62.477 11.35-21.635-12.485-41.754-44.31-57.918-69.882C110.625 101.863 101.794 87.893 96 84.602l1.132-1.988c6.29 3.573 14.835 17.091 25.654 34.204 16.032 25.36 35.983 56.919 57.126 69.121 17.026 9.828 40.032-1.46 60.328-11.42 17.837-8.754 34.689-17.029 45.868-10.573 15.12 8.724 27.573 31.986 39.618 54.484 10.05 18.777 20.443 38.191 32.314 49.234 14.819 13.786 32.254 29.309 49.238 39.922l-1.213 1.938z" fill="#E50044"/>
        <path d="M320.446 270.501c-10.742.002-21.335-1.873-30.402-7.091-29.85-17.184-49.98-50.637-56.597-61.627l-1.283-2.14c-10.667-17.778-35.647-59.412-57.354-71.91-24.719-14.228-55.985 4.04-71.012 12.822-2.384 1.392-4.445 2.597-6.025 3.409l-1.05-2.03c1.525-.785 3.56-1.973 5.917-3.351 15.401-8.994 47.449-27.72 73.314-12.828 22.224 12.793 47.418 54.784 58.176 72.714l1.283 2.137c6.538 10.868 26.44 43.938 55.777 60.823 23.845 13.733 59.32 3.298 78.38-2.307 3.27-.963 6.095-1.793 8.417-2.381 10.676-2.708 20.49-3.558 30.013-2.59l-.232 2.273c-9.248-.936-18.806-.108-29.218 2.529-2.277.58-5.085 1.404-8.334 2.36-12.271 3.61-31.238 9.186-49.77 9.188" fill="#488BF9"/>
        <g>
            <path d="M0 167.687 250.495 312V162.808a32 32 0 0 0-16.026-27.728L10.495 6.046A7 7 0 0 0 0 12.11v155.576z" fill="url(#bnt390qxmi)" transform="translate(0 106)"/>
            <path d="M34.096 20.488 0 .848v52.568l250.495 144.295V55.798L216.4 36.158l-36.462 31.197-36.461-44.943-36.461 26.019L70.555 0z" transform="translate(0 220.289)" fill="url(#9gjcboyj9j)"/>
            <path d="M34.399 249.036c-.317 0-.633-.133-.85-.35a1.225 1.225 0 0 1-.349-.85c0-.299.134-.615.35-.832.45-.45 1.248-.45 1.68 0 .217.217.35.533.35.833 0 .316-.133.633-.35.85-.216.216-.532.349-.831.349M33.2 255.013a1.19 1.19 0 1 1 2.38 0 1.19 1.19 0 1 1-2.38 0m0 7.177a1.19 1.19 0 1 1 2.38 0 1.19 1.19 0 0 1-2.38 0m0 7.16a1.19 1.19 0 1 1 2.38.016 1.19 1.19 0 0 1-2.38-.016m0 7.177a1.19 1.19 0 1 1 2.38 0 1.19 1.19 0 0 1-2.38 0m0 7.16a1.19 1.19 0 1 1 2.38.015 1.19 1.19 0 0 1-2.38-.015M34.399 292.062c-.317 0-.633-.133-.85-.35a1.256 1.256 0 0 1-.349-.849c0-.316.134-.616.35-.849.433-.433 1.248-.433 1.68.017.217.216.35.516.35.832 0 .317-.133.617-.35.85-.216.216-.532.35-.831.35M70.745 228.455c-.315 0-.633-.117-.85-.333a1.184 1.184 0 0 1-.349-.85c0-.316.117-.632.35-.848.45-.45 1.231-.433 1.68 0 .217.216.35.532.35.849 0 .316-.133.616-.35.832-.216.233-.532.35-.831.35M69.547 234.316c0-.65.53-1.182 1.198-1.182a1.191 1.191 0 0 1 0 2.381 1.193 1.193 0 0 1-1.198-1.199m0 7.06c0-.666.53-1.198 1.198-1.198a1.191 1.191 0 1 1-1.198 1.198m0 7.044c0-.666.53-1.199 1.198-1.199.648 0 1.182.533 1.182 1.199 0 .65-.534 1.199-1.182 1.199-.667 0-1.198-.55-1.198-1.2m0 7.044c0-.649.53-1.182 1.198-1.182a1.191 1.191 0 0 1 0 2.381 1.193 1.193 0 0 1-1.198-1.199m0 7.044c0-.65.53-1.182 1.198-1.182a1.191 1.191 0 0 1 0 2.381 1.193 1.193 0 0 1-1.198-1.2m0 7.061c0-.666.53-1.199 1.198-1.199a1.191 1.191 0 1 1-1.198 1.199m0 7.044c0-.65.53-1.183 1.198-1.183a1.191 1.191 0 0 1 0 2.381 1.193 1.193 0 0 1-1.198-1.198m0 7.06c0-.666.53-1.2 1.198-1.2a1.191 1.191 0 1 1-1.198 1.2m0 7.043c0-.666.53-1.199 1.198-1.199.648 0 1.182.533 1.182 1.2 0 .649-.534 1.198-1.182 1.198-.667 0-1.198-.55-1.198-1.199m0 7.044c0-.65.53-1.183 1.198-1.183a1.191 1.191 0 0 1 0 2.381 1.193 1.193 0 0 1-1.198-1.198m0 7.06c0-.666.53-1.2 1.198-1.2a1.191 1.191 0 1 1-1.198 1.2M70.745 313.06c-.315 0-.633-.133-.85-.35a1.184 1.184 0 0 1-.349-.849c0-.316.117-.616.35-.849.433-.433 1.231-.45 1.68.017.217.216.35.516.35.832 0 .317-.133.617-.35.85-.216.216-.532.35-.831.35M107.075 276.977c-.3 0-.616-.133-.833-.35a1.156 1.156 0 0 1-.35-.849c0-.3.117-.616.35-.832.45-.45 1.249-.45 1.681 0a1.186 1.186 0 0 1 0 1.681c-.216.217-.532.35-.848.35M105.893 282.921a1.19 1.19 0 1 1 1.182 1.183 1.186 1.186 0 0 1-1.182-1.183m0 7.127a1.19 1.19 0 1 1 2.38.016 1.19 1.19 0 0 1-2.38-.016m0 7.143a1.19 1.19 0 1 1 1.182 1.183 1.186 1.186 0 0 1-1.182-1.183m0 7.127a1.19 1.19 0 1 1 2.38.016 1.19 1.19 0 0 1-2.38-.016m0 7.144a1.19 1.19 0 1 1 1.182 1.182 1.186 1.186 0 0 1-1.182-1.182m0 7.126c0-.649.532-1.199 1.182-1.199.665 0 1.198.55 1.198 1.2 0 .649-.533 1.198-1.198 1.198-.65 0-1.182-.55-1.182-1.199m0 7.127a1.19 1.19 0 1 1 2.38.016 1.19 1.19 0 0 1-2.38-.016M107.075 334.057c-.3 0-.616-.133-.833-.366a1.12 1.12 0 0 1-.35-.833c0-.316.117-.616.35-.849.45-.433 1.232-.433 1.681 0 .217.217.35.533.35.85 0 .316-.133.632-.35.849-.216.216-.532.35-.848.35M143.42 250.85c-.314 0-.615-.133-.832-.35a1.156 1.156 0 0 1-.35-.848c0-.3.117-.617.35-.833.433-.45 1.232-.45 1.681 0 .218.233.35.533.35.833 0 .316-.132.632-.35.849a1.22 1.22 0 0 1-.848.35M142.24 257.112a1.19 1.19 0 1 1 1.18 1.182 1.186 1.186 0 0 1-1.18-1.182m0 7.426a1.19 1.19 0 1 1 2.38.016 1.19 1.19 0 0 1-2.38-.016m0 7.443a1.19 1.19 0 1 1 2.38.016 1.19 1.19 0 0 1-2.38-.016m0 7.444a1.19 1.19 0 1 1 2.38.016 1.19 1.19 0 0 1-2.38-.016m0 7.443a1.19 1.19 0 1 1 2.38.016 1.19 1.19 0 0 1-2.38-.016m0 7.443a1.19 1.19 0 1 1 2.38.016 1.19 1.19 0 0 1-2.38-.016m0 7.443c0-.65.532-1.199 1.18-1.199.666 0 1.199.55 1.199 1.199a1.19 1.19 0 1 1-2.38 0m0 7.443c0-.65.533-1.199 1.182-1.199.665 0 1.198.55 1.198 1.2a1.19 1.19 0 1 1-2.38 0m0 7.442a1.19 1.19 0 1 1 2.38 0 1.19 1.19 0 1 1-2.38 0m0 7.443a1.19 1.19 0 1 1 2.38 0c0 .65-.533 1.2-1.198 1.2-.65 0-1.182-.55-1.182-1.2m0 7.443a1.19 1.19 0 1 1 2.38 0c0 .65-.533 1.2-1.198 1.2-.65 0-1.182-.55-1.182-1.2m0 7.444a1.19 1.19 0 1 1 1.182 1.182 1.186 1.186 0 0 1-1.182-1.182m0 7.443a1.19 1.19 0 1 1 1.182 1.182 1.186 1.186 0 0 1-1.182-1.182M143.42 355.038c-.314 0-.615-.117-.832-.35a1.12 1.12 0 0 1-.35-.832c0-.317.117-.616.334-.85.467-.449 1.248-.449 1.697 0 .218.234.35.533.35.85 0 .3-.132.616-.35.832-.216.233-.53.35-.848.35M179.767 295.76c-.315 0-.616-.134-.832-.367-.233-.2-.35-.516-.35-.833 0-.316.117-.616.35-.849.434-.433 1.231-.433 1.682 0 .216.233.35.533.35.85 0 .316-.134.632-.35.849a1.23 1.23 0 0 1-.85.35M178.585 301.854a1.192 1.192 0 0 1 2.381 0 1.19 1.19 0 1 1-2.381 0m0 7.31a1.19 1.19 0 1 1 2.382 0 1.192 1.192 0 0 1-2.382 0m0 7.293c0-.65.533-1.199 1.182-1.199.665 0 1.2.55 1.2 1.2a1.19 1.19 0 1 1-2.381 0m0 7.292c0-.649.532-1.182 1.18-1.182.666 0 1.2.533 1.2 1.182a1.19 1.19 0 1 1-2.381 0m0 7.31a1.19 1.19 0 1 1 2.382 0 1.192 1.192 0 0 1-2.382 0m0 7.294a1.19 1.19 0 1 1 2.382 0c0 .649-.535 1.198-1.2 1.198-.65 0-1.182-.549-1.182-1.198m0 7.293a1.192 1.192 0 0 1 2.381 0 1.19 1.19 0 1 1-2.381 0m0 7.31a1.19 1.19 0 1 1 2.382 0 1.192 1.192 0 0 1-2.382 0m0 7.293a1.19 1.19 0 1 1 2.382 0 1.19 1.19 0 1 1-2.381 0m0 7.293c0-.65.532-1.182 1.18-1.182.666 0 1.2.533 1.2 1.182a1.19 1.19 0 1 1-2.381 0M179.767 376.035c-.315 0-.616-.116-.832-.35a1.12 1.12 0 0 1-.35-.832c0-.316.117-.633.35-.85.434-.449 1.231-.449 1.682 0 .216.217.35.534.35.85 0 .316-.134.616-.35.832-.218.234-.534.35-.85.35M216.113 264.705c-.315 0-.633-.133-.85-.366-.215-.2-.349-.517-.349-.833a1.2 1.2 0 0 1 .367-.85c.416-.432 1.231-.432 1.682.017.216.217.35.517.35.833 0 .316-.134.633-.368.85-.217.216-.516.349-.832.349M214.915 270.865c0-.666.55-1.199 1.198-1.199a1.19 1.19 0 1 1 0 2.381c-.649 0-1.198-.532-1.198-1.182m0 7.344c0-.65.55-1.2 1.198-1.2.666 0 1.198.55 1.198 1.2 0 .666-.532 1.198-1.198 1.198a1.204 1.204 0 0 1-1.198-1.198m0 7.36c0-.667.55-1.2 1.198-1.2a1.19 1.19 0 1 1 0 2.381c-.649 0-1.198-.532-1.198-1.182m0 7.344c0-.65.55-1.183 1.198-1.183a1.19 1.19 0 1 1 0 2.381 1.204 1.204 0 0 1-1.198-1.198m0 7.36c0-.667.55-1.2 1.198-1.2a1.19 1.19 0 1 1 0 2.381c-.649 0-1.198-.532-1.198-1.182m0 7.344c0-.65.55-1.183 1.198-1.183a1.19 1.19 0 1 1 0 2.382 1.204 1.204 0 0 1-1.198-1.2m0 7.36c0-.666.55-1.198 1.198-1.198.666 0 1.198.532 1.198 1.199 0 .649-.532 1.198-1.198 1.198-.649 0-1.198-.55-1.198-1.198m0 7.343c0-.65.55-1.182 1.198-1.182a1.19 1.19 0 1 1 0 2.38 1.204 1.204 0 0 1-1.198-1.198m0 7.36c0-.665.55-1.2 1.198-1.2a1.19 1.19 0 1 1 0 2.381c-.649 0-1.198-.532-1.198-1.181m0 7.343c0-.65.55-1.182 1.198-1.182a1.19 1.19 0 1 1 0 2.38 1.204 1.204 0 0 1-1.198-1.198m0 7.36c0-.666.55-1.2 1.198-1.2a1.19 1.19 0 1 1 0 2.381c-.649 0-1.198-.532-1.198-1.181m0 7.343c0-.648.55-1.182 1.198-1.182a1.191 1.191 0 1 1 0 2.38 1.204 1.204 0 0 1-1.198-1.198m0 7.36c0-.666.55-1.2 1.198-1.2a1.19 1.19 0 1 1 0 2.381c-.649.001-1.198-.532-1.198-1.181m0 7.343c0-.65.55-1.182 1.198-1.182a1.19 1.19 0 1 1 0 2.38 1.204 1.204 0 0 1-1.198-1.198m0 7.36c0-.666.55-1.199 1.198-1.199.666 0 1.198.533 1.198 1.199s-.532 1.199-1.198 1.199a1.204 1.204 0 0 1-1.198-1.2m0 7.344c0-.65.55-1.182 1.198-1.182a1.19 1.19 0 1 1 0 2.381 1.204 1.204 0 0 1-1.198-1.199m0 7.36c0-.65.55-1.197 1.198-1.197.666 0 1.198.548 1.198 1.197 0 .666-.532 1.199-1.198 1.199a1.204 1.204 0 0 1-1.198-1.2M216.113 397.033c-.315 0-.633-.133-.85-.35a1.232 1.232 0 0 1-.349-.85c0-.315.134-.617.367-.833.434-.448 1.214-.448 1.682 0 .216.216.35.518.35.832 0 .334-.134.617-.35.851-.216.217-.534.35-.85.35" fill="#E50044"/>
            <path d="M31.932 235.934c-1.45 0-1.667 1.282-1.667 2.047 0 2.417 2.07 5.658 4.52 7.073.744.428 1.454.656 2.058.656 1.45 0 1.668-1.282 1.668-2.046 0-2.42-2.072-5.658-4.522-7.074-.742-.43-1.453-.656-2.057-.656m4.911 11.366c-.882 0-1.868-.3-2.854-.867-2.98-1.724-5.315-5.435-5.315-8.452 0-2.21 1.28-3.637 3.258-3.637.882 0 1.87.3 2.853.868 2.98 1.721 5.315 5.433 5.315 8.452 0 2.21-1.278 3.636-3.257 3.636M68.281 215.453c-1.45 0-1.668 1.282-1.668 2.046 0 2.418 2.07 5.657 4.522 7.074.742.428 1.453.656 2.057.656 1.45 0 1.668-1.282 1.668-2.047 0-2.42-2.07-5.658-4.522-7.073-.74-.43-1.453-.656-2.057-.656m4.911 11.366c-.882 0-1.869-.3-2.854-.868-2.98-1.723-5.314-5.435-5.314-8.452 0-2.21 1.28-3.638 3.257-3.638.884 0 1.869.301 2.854.869 2.98 1.723 5.314 5.435 5.314 8.452 0 2.21-1.277 3.637-3.257 3.637M104.63 263.87c-1.45 0-1.667 1.282-1.667 2.046 0 2.418 2.07 5.657 4.521 7.074.743.428 1.453.656 2.057.656 1.45 0 1.668-1.282 1.668-2.047 0-2.419-2.07-5.658-4.522-7.073-.74-.43-1.453-.656-2.057-.656m4.911 11.366c-.882 0-1.869-.3-2.854-.867-2.98-1.724-5.314-5.435-5.314-8.453 0-2.21 1.28-3.638 3.257-3.638.884 0 1.87.301 2.854.87 2.981 1.723 5.314 5.434 5.314 8.451 0 2.21-1.276 3.637-3.257 3.637M140.98 237.859c-1.45 0-1.668 1.282-1.668 2.046 0 2.418 2.07 5.657 4.522 7.074.74.428 1.453.654 2.055.654 1.451 0 1.67-1.282 1.67-2.046 0-2.42-2.071-5.657-4.522-7.072-.743-.43-1.453-.656-2.057-.656m4.909 11.366c-.88 0-1.867-.301-2.852-.868-2.981-1.723-5.314-5.436-5.314-8.452 0-2.21 1.276-3.638 3.257-3.638.882 0 1.869.301 2.854.87 2.98 1.72 5.314 5.432 5.314 8.45 0 2.21-1.279 3.638-3.259 3.638M177.329 282.789c-1.45 0-1.668 1.282-1.668 2.046 0 2.42 2.07 5.658 4.522 7.074.742.428 1.453.656 2.057.656 1.45 0 1.667-1.282 1.667-2.047 0-2.42-2.07-5.658-4.521-7.073-.743-.43-1.455-.656-2.057-.656m4.91 11.366c-.881 0-1.868-.3-2.853-.868-2.98-1.721-5.314-5.433-5.314-8.452 0-2.21 1.278-3.638 3.257-3.638.882 0 1.869.301 2.854.87 2.98 1.723 5.314 5.434 5.314 8.451 0 2.21-1.277 3.637-3.257 3.637M213.678 251.6c-1.451 0-1.67 1.282-1.67 2.047 0 2.419 2.071 5.656 4.524 7.071.742.43 1.453.656 2.057.656 1.45 0 1.668-1.282 1.668-2.046 0-2.418-2.07-5.656-4.522-7.072-.742-.43-1.454-.656-2.057-.656m4.911 11.366c-.882 0-1.869-.3-2.854-.869-2.98-1.72-5.315-5.432-5.315-8.45 0-2.21 1.28-3.639 3.258-3.639.882 0 1.869.302 2.854.87 2.98 1.721 5.314 5.434 5.314 8.45 0 2.21-1.276 3.638-3.257 3.638" fill="#E50044"/>
            <path fill="#E50044" d="m183.14 285.908-1.033-1.212 30.796-26.282 1.034 1.212zM175.018 283.143l-28.167-34.758 1.235-1.002 28.167 34.758zM110.606 267.323l-.93-1.29 30.257-21.822.93 1.292zM102.58 263.97l-28.559-37.926 1.27-.957 28.561 37.926zM38.142 239.869l-.788-1.384 29.796-16.948.786 1.384zM249.725 276.812l-29.072-16.794.797-1.38 29.072 16.795zM29.072 238.67 0 221.877l.795-1.38 29.073 16.795z"/>
        </g>
        <g>
            <g transform="translate(147 285)">
                <mask id="ne6kvssmnn" fill="#fff">
                    <use xlink:href="#491mew6r1l"/>
                </mask>
                <path d="m13.504 151.295 183.998 106.184c5.262 3.037 11.989 1.233 15.025-4.03a11 11 0 0 0 1.473-5.497V139.668a28 28 0 0 0-14.005-24.251L10.5 6.059A7 7 0 0 0 0 12.122v115.787a27 27 0 0 0 13.504 23.386z" fill="url(#jpjpf9xljm)" mask="url(#ne6kvssmnn)"/>
            </g>
            <path d="m262.39 402.152-13.172-20.36c-9.361 4.275-15.279 13.882-15.796 27.995l18.314 11.25c.348-9.52 4.34-16 10.654-18.885M325.22 451.412c1.586 5.103 2.46 10.147 2.46 14.891 0 20.998-17.008 28.192-37.99 16.068a60.63 60.63 0 0 1-2.505-1.538l-1.209 17.6a93.83 93.83 0 0 0 3.715 2.284c31.105 17.971 56.32 7.307 56.32-23.823 0-7.033-1.297-14.51-3.648-22.076l-17.143-3.406z" fill="#146AFE"/>
            <path d="M289.691 406.331c16.24 9.385 30.095 27.593 35.53 45.08l17.142 3.407c-8.056-25.926-28.595-52.919-52.672-66.83-15.89-9.183-30.234-10.874-40.473-6.197l13.171 20.36c6.908-3.154 16.583-2.013 27.302 4.18M251.7 422.4c0-.464.019-.914.036-1.364l-18.314-11.25c-.024.669-.051 1.335-.051 2.024 0 29.878 23.234 67.737 52.605 86.624l1.21-17.6C267.372 468.091 251.7 442.554 251.7 422.4" fill="#E50044"/>
            <path fill="url(#1dizf8ra4o)" d="m0 43.63 48.418 27.977v3.744L0 47.373zM0 38.312 48.418 66.29v3.743L0 42.056z" transform="translate(166.984 319.21)"/>
            <path fill="url(#ity6m082bp)" d="m7.086 37.088 41.332 23.883v3.741L7.086 40.83z" transform="translate(166.984 319.21)"/>
            <path fill="url(#6pcib8mtlq)" d="m0 27.676 48.418 27.976v3.742L0 31.419z" transform="translate(166.984 319.21)"/>
            <path fill="url(#avrf89w83r)" d="m23.422 35.89 24.996 14.443v3.743L23.422 39.634z" transform="translate(166.984 319.21)"/>
            <path fill="url(#e7vmflll5s)" d="M4.92 18.799 48.42 43.932v3.743L4.921 22.54z" transform="translate(166.984 319.21)"/>
            <path fill="url(#sr7lz4xrtt)" d="M3.05 12.4 48.42 38.614v3.741L3.05 16.142z" transform="translate(166.984 319.21)"/>
            <path fill="url(#ity6m082bp)" d="m7.086 9.413 41.332 23.882v3.742L7.086 13.154z" transform="translate(166.984 319.21)"/>
            <path fill="url(#1dizf8ra4o)" d="m0 0 48.418 27.977v3.743L0 3.743z" transform="translate(166.984 319.21)"/>
            <path fill="url(#0pwp0742ou)" d="m17.124 4.576 31.294 18.083V26.4L17.124 8.319z" transform="translate(166.984 319.21)"/>
            <path fill="url(#1dizf8ra4o)" d="m0 98.747 48.418 27.977v3.743L0 102.491z" transform="translate(166.984 319.21)"/>
            <path fill="url(#6pcib8mtlq)" d="m0 93.429 48.418 27.976v3.742L0 97.172z" transform="translate(166.984 319.21)"/>
            <path fill="url(#ity6m082bp)" d="m7.086 92.205 41.332 23.882v3.742L7.086 95.948z" transform="translate(166.984 319.21)"/>
            <path fill="url(#1dizf8ra4o)" d="m0 82.792 48.418 27.977v3.743L0 86.534z" transform="translate(166.984 319.21)"/>
            <path fill="url(#avrf89w83r)" d="m23.422 91.007 24.996 14.444v3.742L23.422 94.75z" transform="translate(166.984 319.21)"/>
            <path fill="url(#e7vmflll5s)" d="M4.92 73.915 48.42 99.048v3.743L4.921 77.657z" transform="translate(166.984 319.21)"/>
            <path fill="url(#sr7lz4xrtt)" d="M3.05 67.516 48.42 93.73v3.742L3.05 71.258z" transform="translate(166.984 319.21)"/>
            <path fill="url(#ity6m082bp)" d="m7.086 64.53 41.332 23.882v3.741L7.086 68.271z" transform="translate(166.984 319.21)"/>
            <path fill="url(#6pcib8mtlq)" d="m0 55.117 48.418 27.976v3.742L0 58.858z" transform="translate(166.984 319.21)"/>
            <path fill="url(#0pwp0742ou)" d="m17.124 59.692 31.294 18.083v3.742L17.124 63.435z" transform="translate(166.984 319.21)"/>
        </g>
    </g>
</svg>
