<svg width="158" height="38" viewBox="0 0 158 38" xmlns="http://www.w3.org/2000/svg">
    <defs>
        <linearGradient x1="65.177%" y1="33.757%" x2="34.823%" y2="62.222%" id="rqwsvdar9a">
            <stop stop-color="#D3D5D9" stop-opacity=".4" offset="0%"/>
            <stop stop-color="#D3D5D9" stop-opacity=".9" offset="100%"/>
        </linearGradient>
        <linearGradient x1="65.177%" y1="31.265%" x2="34.823%" y2="62.225%" id="5899cxroib">
            <stop stop-color="#146AFE" stop-opacity=".403" offset="0%"/>
            <stop stop-color="#146AFE" stop-opacity=".9" offset="100%"/>
        </linearGradient>
        <linearGradient x1="34.823%" y1="65.537%" x2="65.177%" y2="35.112%" id="pes689zq7c">
            <stop stop-color="#E50044" stop-opacity=".9" offset="0%"/>
            <stop stop-color="#E50044" stop-opacity=".4" offset="100%"/>
        </linearGradient>
    </defs>
    <g fill="none" fill-rule="evenodd">
        <path d="M20.699 16.005c0 5.673-4.634 12.896-10.35 16.134l-9.314 5.275C.463 37.738 0 37.541 0 36.973V12.32c0-.567.463-1.29 1.035-1.613L19.664.156c.571-.324 1.035-.127 1.035.44v15.409z" fill="url(#rqwsvdar9a)" style="mix-blend-mode:multiply" transform="translate(0 .174)"/>
        <path d="M28.186.597v15.408c0 5.673-4.634 12.896-10.35 16.134l-9.314 5.275c-.572.324-1.035.127-1.035-.441V12.32c0-.567.463-1.29 1.035-1.613L27.15.156c.572-.324 1.035-.127 1.035.44" fill="url(#5899cxroib)" style="mix-blend-mode:multiply" transform="translate(0 .174)"/>
        <path d="M35.232 16.005c0 5.673-4.634 12.896-10.35 16.134l-9.314 5.275c-.571.324-1.035.127-1.035-.441V12.32c0-.567.464-1.29 1.035-1.613L34.198.156c.57-.324 1.034-.127 1.034.44v15.409z" fill="url(#pes689zq7c)" fill-rule="nonzero" style="mix-blend-mode:multiply" transform="translate(0 .174)"/>
        <path d="M50.398 30.7c-3.354 0-5.67-1.366-6.945-4.099l3.056-1.857c.7 1.58 2.006 2.37 3.92 2.37 1.234 0 2.186-.315 2.855-.945.668-.63 1.003-1.52 1.003-2.673V7.87h3.55v15.625c0 2.305-.7 4.082-2.1 5.33-1.399 1.25-3.178 1.874-5.339 1.874m14.784-4.803c.926.96 2.068 1.44 3.426 1.44s2.5-.48 3.427-1.44c.925-.96 1.388-2.166 1.388-3.618 0-1.451-.463-2.658-1.388-3.618-.927-.96-2.069-1.44-3.427-1.44s-2.5.48-3.426 1.44c-.926.96-1.389 2.167-1.389 3.618 0 1.452.463 2.657 1.39 3.618m3.425 4.803c-2.263 0-4.187-.811-5.771-2.434-1.585-1.621-2.377-3.618-2.377-5.987 0-2.37.792-4.365 2.377-5.987 1.584-1.623 3.508-2.434 5.771-2.434 2.284 0 4.213.811 5.788 2.434 1.574 1.622 2.36 3.617 2.36 5.987s-.786 4.366-2.36 5.987C72.82 29.89 70.892 30.7 68.608 30.7m15.38-4.755c.926.972 2.089 1.457 3.489 1.457 1.398 0 2.561-.485 3.487-1.457.926-.971 1.39-2.193 1.39-3.666 0-1.473-.464-2.695-1.39-3.666-.926-.971-2.089-1.457-3.487-1.457-1.4 0-2.563.486-3.488 1.457-.926.971-1.39 2.193-1.39 3.666 0 1.473.464 2.695 1.39 3.666M88 13.858c2.12 0 3.93.811 5.433 2.434 1.502 1.622 2.253 3.617 2.253 5.987 0 2.348-.751 4.338-2.253 5.971C91.93 29.883 90.12 30.7 88 30.7c-2.346 0-4.146-.907-5.401-2.722v2.306h-3.334V7.87H82.6v8.676c1.255-1.792 3.055-2.689 5.401-2.689m19.056 12.903c2.037 0 3.699-.725 4.985-2.177 1.286-1.451 1.93-3.286 1.93-5.507 0-2.241-.644-4.082-1.93-5.523-1.286-1.44-2.948-2.161-4.985-2.161h-4.938V26.76h4.938zm0-18.89c2.964 0 5.427 1.078 7.393 3.233 1.964 2.157 2.947 4.814 2.947 7.973 0 3.138-.983 5.79-2.947 7.956-1.966 2.167-4.43 3.25-7.393 3.25H98.57V7.871h8.488zm12.991 22.413h3.334v-16.01h-3.334v16.01zm17.18-16.01h3.642l-6.019 16.01h-3.858l-6.019-16.01h3.642l4.323 12.202 4.289-12.202zm8.445 11.671c.926.972 2.088 1.457 3.487 1.457 1.4 0 2.562-.485 3.488-1.457.926-.971 1.39-2.193 1.39-3.666 0-1.473-.464-2.695-1.39-3.666-.926-.971-2.088-1.457-3.488-1.457-1.399 0-2.561.486-3.487 1.457-.926.971-1.39 2.193-1.39 3.666 0 1.473.464 2.695 1.39 3.666zm8.364-11.67h3.334v16.009h-3.334v-2.306c-1.255 1.815-3.056 2.721-5.401 2.721-2.12 0-3.93-.816-5.433-2.449-1.502-1.633-2.253-3.623-2.253-5.971 0-2.37.751-4.365 2.253-5.987 1.502-1.623 3.313-2.434 5.433-2.434 2.345 0 4.146.897 5.401 2.69v-2.274z" fill="#001241"/>
        <path d="M123.419 6.146v2.621c0 .966-.8 2.195-1.787 2.745l-1.608.898c-.099.055-.18.022-.18-.075V8.14c0-.096.081-.219.18-.274l3.216-1.795c.099-.055.179-.022.179.075" fill="#9763A2"/>
    </g>
</svg>
