<svg width="693" height="228" viewBox="0 0 693 228" xmlns="http://www.w3.org/2000/svg">
    <defs>
        <radialGradient cx="50%" cy="86.126%" fx="50%" fy="86.126%" r="174.245%" gradientTransform="matrix(-.29676 -.43174 .12992 -.825 .536 1.788)" id="h3og4klmwa">
            <stop stop-color="#E50044" offset="0%"/>
            <stop stop-color="#A20E5E" offset="29.02%"/>
            <stop stop-color="#5E1B78" offset="62.072%"/>
            <stop stop-color="#146AFE" offset="100%"/>
        </radialGradient>
    </defs>
    <path d="M460.958 153.423a507.224 507.224 0 0 0 36.279-.539c17.243-.891 33.955-2.691 49.667-5.35 17.097-2.9 33.38-6.873 48.395-11.81 17.088-5.63 31.919-12.17 45.338-19.995 7.5-4.383 14.325-9.075 20.283-13.944 3.254-2.66 6.297-5.42 9.045-8.207 3.047-3.098 5.618-6.095 7.86-9.16 2.57-3.523 4.506-6.85 5.917-10.17.787-1.86 1.38-3.669 1.76-5.371.42-1.884.596-3.677.522-5.33-.077-1.767-.442-3.392-1.085-4.832a11.552 11.552 0 0 0-2.83-3.863c-1.192-1.071-2.652-1.977-4.34-2.694-1.545-.657-3.322-1.173-5.283-1.533a38.622 38.622 0 0 0-5.72-.57 45.294 45.294 0 0 0-1.435-.023c-1.41 0-2.909.065-4.453.192-3.686.309-7.555.972-11.826 2.027-3.71.92-7.531 2.089-11.68 3.572-3.63 1.297-7.38 2.788-11.467 4.559-6.81 2.954-13.923 6.404-22.385 10.857-6.613 3.485-13.57 7.336-21.895 12.116-12.752 7.337-25.607 15.04-38.04 22.488l-5.2 3.116c-16.082 9.632-29.619 17.67-43.414 25.586-12.004 6.889-23.206 13.107-34.013 18.878zM9.205 52.203c-.183.919-.356 1.786-.499 2.665-1.285 7.576-1.536 15.685-.748 24.115.728 7.781 2.337 15.817 4.78 23.883 4.653 15.26 12.024 29.946 21.91 43.645a163.342 163.342 0 0 0 7.561 9.678 168.364 168.364 0 0 0 8.278 9.084c5.637 5.756 11.844 11.214 18.45 16.223 12.947 9.816 27.368 17.856 42.864 23.897a195.907 195.907 0 0 0 23.484 7.475c3.934.988 7.99 1.88 12.057 2.65 3.894.736 7.999 1.387 12.2 1.935 3.981.519 8.125.95 12.314 1.284a387.25 387.25 0 0 0 31.607 1.284c1.889 0 3.814-.013 5.722-.04 16.365-.243 33.073-1.523 49.657-3.804 16.062-2.203 32.528-5.409 48.94-9.529 15.56-3.903 31.635-8.777 47.782-14.486 15.072-5.328 30.695-11.568 46.435-18.547 11.18-4.959 21.874-10 33.118-15.624-11.873-.846-24.542-2.06-37.99-4.303-.101-.017-.569-.11-.945-.184l-.4-.08c-16.605-2.63-33.786-6.359-49.684-10.78-14.447-4.025-29.487-9.26-47.335-16.479-17.282-6.972-33.471-15.2-45.645-21.589-4.84-2.546-9.535-5.368-14.075-8.096a509.114 509.114 0 0 0-7.662-4.545 809.779 809.779 0 0 1-21.659-12.993c-12.064-7.479-24.126-15.364-35.79-22.99a9240.13 9240.13 0 0 0-6.577-4.296c-7.823-5.099-14.41-9.352-21.126-13.535-8.277-5.148-15.113-9.169-21.514-12.654-8.049-4.385-15.35-7.87-22.32-10.655-8.322-3.316-15.974-5.504-23.394-6.686a83.461 83.461 0 0 0-5.976-.729 80.296 80.296 0 0 0-6.005-.266 77.64 77.64 0 0 0-5.987.232c-1.912.16-3.912.412-5.93.747a72.386 72.386 0 0 0-5.849 1.256c-1.727.446-3.598 1.016-5.713 1.743l-.461.167c-.81.293-1.576.57-2.332.879l-.047.018a55.06 55.06 0 0 0-2.72 1.148 47.258 47.258 0 0 0-5.146 2.74c-3.38 2.073-6.44 4.514-9.093 7.252a50.66 50.66 0 0 0-7.12 9.29c-1.952 3.28-3.627 6.888-4.974 10.715a70.502 70.502 0 0 0-1.706 5.692l-.136.547c-.079.31-.153.604-.215.89l-.333 1.49-.053.266zM203.615 228a395.33 395.33 0 0 1-32.404-1.323c-4.383-.35-8.658-.8-12.705-1.333a227.162 227.162 0 0 1-12.643-2.02 219.91 219.91 0 0 1-12.513-2.767 203.732 203.732 0 0 1-24.426-7.807c-16.235-6.355-31.282-14.775-44.722-25.026-6.897-5.256-13.38-10.982-19.266-17.021a175.924 175.924 0 0 1-8.641-9.527 171.216 171.216 0 0 1-7.9-10.16c-10.35-14.411-18.06-29.871-22.922-45.951-2.572-8.561-4.26-17.102-5.016-25.39-.828-9.132-.53-17.898.887-26.055.165-.99.367-1.987.564-2.95l.063-.31.354-1.56c.082-.365.174-.724.263-1.071.045-.175.09-.35.133-.526l.007-.026a77.902 77.902 0 0 1 1.922-6.323c1.529-4.293 3.43-8.343 5.652-12.045 2.36-3.903 5.118-7.471 8.201-10.612 3.085-3.16 6.635-5.97 10.547-8.35a54.524 54.524 0 0 1 5.96-3.14 62.04 62.04 0 0 1 3.069-1.281c.874-.351 1.753-.666 2.605-.97l.488-.175c2.308-.784 4.369-1.403 6.3-1.893a79.602 79.602 0 0 1 6.453-1.36c2.221-.36 4.42-.627 6.544-.797A84.865 84.865 0 0 1 66.729 0h.324c2.1.019 4.305.125 6.567.316a90.46 90.46 0 0 1 6.499.817c7.945 1.297 16.08 3.65 24.876 7.195 7.128 2.873 14.657 6.51 23.018 11.12 6.502 3.585 13.425 7.706 21.787 12.97 6.749 4.252 13.345 8.56 21.173 13.723 1.995 1.317 3.988 2.635 5.98 3.953 11.785 7.793 23.97 15.852 36.117 23.485a803.59 803.59 0 0 0 21.406 13.04 638.443 638.443 0 0 0 21.837 12.25c15.156 8.09 30.36 15.304 45.188 21.439 15.517 6.425 31.39 11.986 47.18 16.53 15.222 4.396 31.036 7.964 48.347 10.907.135.023.76.12.983.155l.032.004c16.19 2.512 32.061 4.18 47.182 4.959l.372-.19c.508-.26 1.017-.52 1.524-.783 13.799-7.13 28.2-14.989 44.028-24.024 13.767-7.856 27.286-15.84 43.35-25.412l21.63-12.866c5.94-3.515 13.782-8.131 21.8-12.694 8.417-4.791 15.465-8.655 22.179-12.162 8.65-4.509 15.934-8.006 22.925-11.007 4.237-1.817 8.139-3.35 11.93-4.688 4.379-1.547 8.43-2.768 12.383-3.733 4.648-1.129 8.886-1.836 12.957-2.16a61.701 61.701 0 0 1 4.831-.198c.625 0 1.25.01 1.859.032a45.87 45.87 0 0 1 6.77.707c2.512.471 4.724 1.127 6.77 2.005 2.399 1.03 4.51 2.361 6.272 3.958.98.892 1.847 1.856 2.583 2.87a18.445 18.445 0 0 1 1.935 3.36c.995 2.25 1.553 4.731 1.658 7.375.092 2.252-.15 4.659-.717 7.15-.49 2.138-1.201 4.281-2.176 6.555-1.643 3.804-3.852 7.566-6.755 11.505-2.458 3.325-5.256 6.555-8.557 9.877a121.556 121.556 0 0 1-9.627 8.646c-6.343 5.129-13.281 9.848-21.212 14.428-7.06 4.073-14.745 7.906-22.844 11.394-7.59 3.266-15.613 6.264-23.845 8.91-16.382 5.265-32.95 9.28-49.243 11.932a432.144 432.144 0 0 1-50.457 5.147 507.281 507.281 0 0 1-25.408.45c-3.772-.027-7.755-.11-12.537-.262-.94-.027-1.965-.05-3.016-.074a286.931 286.931 0 0 1-5.721-.163l-.151.078c-32.62 16.962-62.877 30.318-92.495 40.833-16.26 5.77-32.575 10.725-48.493 14.728-16.692 4.197-33.446 7.465-49.796 9.714-16.882 2.32-33.916 3.618-50.631 3.86-1.896.026-3.808.039-5.684.039z" fill="url(#h3og4klmwa)" fill-rule="evenodd"/>
</svg>
