<?xml version="1.0" encoding="utf-8"?>
<!-- Generator: Adobe Illustrator 25.4.1, SVG Export Plug-In . SVG Version: 6.00 Build 0)  -->
<svg version="1.1" id="Layer_1" xmlns="http://www.w3.org/2000/svg" xmlns:xlink="http://www.w3.org/1999/xlink" x="0px" y="0px"
	 viewBox="0 0 708 471" style="enable-background:new 0 0 708 471;" xml:space="preserve">
<style type="text/css">
	.st0{fill:url(#SVGID_1_);}
	.st1{filter:url(#Adobe_OpacityMaskFilter);}
	.st2{fill-rule:evenodd;clip-rule:evenodd;fill:#FFFFFF;}
	
		.st3{mask:url(#i7l01sm4zd_00000077297328580113238280000016292439184392413319_);fill-rule:evenodd;clip-rule:evenodd;fill:#122B95;}
	.st4{filter:url(#Adobe_OpacityMaskFilter_00000154391088431664317350000013610889624235517862_);}
	
		.st5{mask:url(#u66vks8lcg_00000146494503656771693630000011072656799417898681_);fill-rule:evenodd;clip-rule:evenodd;fill:#352488;}
	.st6{filter:url(#Adobe_OpacityMaskFilter_00000065786701885061421830000005311571901867428281_);}
	
		.st7{mask:url(#ns20behv0j_00000022559315968294167850000012656821907538983834_);fill-rule:evenodd;clip-rule:evenodd;fill:#581D7A;}
	.st8{filter:url(#Adobe_OpacityMaskFilter_00000154414266592959359590000008645606104853894021_);}
	
		.st9{mask:url(#_x31_gxvx237dm_00000084525395691807925040000008687100242890020751_);fill-rule:evenodd;clip-rule:evenodd;fill:#7B166D;}
	.st10{filter:url(#Adobe_OpacityMaskFilter_00000099632390967425059790000014064825620140644509_);}
	
		.st11{mask:url(#wx26vj99bp_00000109709088470630440700000015166600041811123385_);fill-rule:evenodd;clip-rule:evenodd;fill:#9F0E5F;}
	.st12{fill-rule:evenodd;clip-rule:evenodd;fill:#C20752;}
	.st13{filter:url(#Adobe_OpacityMaskFilter_00000132065951644285141200000004799402088073457337_);}
	
		.st14{mask:url(#dupbs6velt_00000090292542779436208990000008176775215278490503_);fill-rule:evenodd;clip-rule:evenodd;fill:#E50044;}
	.st15{fill:url(#SVGID_00000129910653260896046330000010974186117681945003_);}
	.st16{filter:url(#Adobe_OpacityMaskFilter_00000119817273928932790160000012843531906101023873_);}
	
		.st17{mask:url(#_x37_prj2v6q9v_00000128466653490977805600000004546508503079798205_);fill-rule:evenodd;clip-rule:evenodd;fill:#122B95;}
	.st18{filter:url(#Adobe_OpacityMaskFilter_00000013907493027953035870000016702590538590573733_);}
	
		.st19{mask:url(#_x33_4q81mfx1x_00000047020628571632421050000001797714594524784782_);fill-rule:evenodd;clip-rule:evenodd;fill:#352488;}
	.st20{filter:url(#Adobe_OpacityMaskFilter_00000138544026018077110250000014657621108925334146_);}
	
		.st21{mask:url(#gi2x7ys5rA_00000034777438401156571910000000056653476828562351_);fill-rule:evenodd;clip-rule:evenodd;fill:#581D7A;}
	.st22{filter:url(#Adobe_OpacityMaskFilter_00000096033551450001942680000001061020504856408754_);}
	
		.st23{mask:url(#r0gpjoo14D_00000060027967135985495670000005628943730296274604_);fill-rule:evenodd;clip-rule:evenodd;fill:#7B166D;}
	.st24{filter:url(#Adobe_OpacityMaskFilter_00000080169901673181097770000003849505082678184614_);}
	
		.st25{mask:url(#_x38_wp73x394G_00000165916567439285232170000003867294909387214492_);fill-rule:evenodd;clip-rule:evenodd;fill:#9F0E5F;}
	.st26{filter:url(#Adobe_OpacityMaskFilter_00000006673393353227988180000012539433165645943998_);}
	
		.st27{mask:url(#cvqtskf09J_00000001635324531976045370000002570839659720475794_);fill-rule:evenodd;clip-rule:evenodd;fill:#C20752;}
	.st28{filter:url(#Adobe_OpacityMaskFilter_00000125582175136522859660000005038908467170870932_);}
	
		.st29{mask:url(#yitl6e8xrM_00000055667082531504118430000017953266210936026757_);fill-rule:evenodd;clip-rule:evenodd;fill:#E50044;}
	.st30{fill:url(#SVGID_00000067951635154667866500000002357033835173906878_);}
	.st31{fill:url(#SVGID_00000016754226306086244670000005137125034930668170_);}
	.st32{filter:url(#Adobe_OpacityMaskFilter_00000041998195500414573470000011865066099830418084_);}
	
		.st33{mask:url(#sftkxmoqeP_00000178204256958947127870000008177179451887805627_);fill-rule:evenodd;clip-rule:evenodd;fill:#352488;}
	.st34{filter:url(#Adobe_OpacityMaskFilter_00000114035867444244863520000012400155090382978216_);}
	
		.st35{mask:url(#_x39_6gohg4hiR_00000042004445505025311180000007342039456054912652_);fill-rule:evenodd;clip-rule:evenodd;fill:#581D7A;}
	.st36{filter:url(#Adobe_OpacityMaskFilter_00000039818214923727681850000003011275827478458004_);}
	
		.st37{mask:url(#_x39_wzjuchq1U_00000181792166483911412910000013035353037293755281_);fill-rule:evenodd;clip-rule:evenodd;fill:#7B166D;}
	.st38{filter:url(#Adobe_OpacityMaskFilter_00000153705620951438042000000017730583736862450102_);}
	
		.st39{mask:url(#p0fw5q4qzX_00000098194522822320065480000004252041682979186308_);fill-rule:evenodd;clip-rule:evenodd;fill:#9F0E5F;}
	.st40{filter:url(#Adobe_OpacityMaskFilter_00000153670432610738289960000000385515110807360173_);}
	
		.st41{mask:url(#_x39_zp0y7a43aa_00000094619257382515609620000009383319377674007948_);fill-rule:evenodd;clip-rule:evenodd;fill:#C20752;}
	.st42{filter:url(#Adobe_OpacityMaskFilter_00000144325081786211205020000010634126175188734379_);}
	
		.st43{mask:url(#xr9yy3fi7ad_00000178887137415015485280000014774522700365812895_);fill-rule:evenodd;clip-rule:evenodd;fill:#E50044;}
	.st44{fill-rule:evenodd;clip-rule:evenodd;fill:#D8D8D8;}
	.st45{fill:#DADEE3;}
</style>
<g>
	
		<linearGradient id="SVGID_1_" gradientUnits="userSpaceOnUse" x1="-183.8726" y1="472" x2="-184.2195" y2="472" gradientTransform="matrix(413 0 0 -1 76273 773.5)">
		<stop  offset="0" style="stop-color:#FFFFFF"/>
		<stop  offset="1" style="stop-color:#DADEE3"/>
	</linearGradient>
	<path class="st0" d="M466,302.5H53c-0.6,0-1-0.4-1-1s0.4-1,1-1h413c0.6,0,1,0.4,1,1S466.6,302.5,466,302.5z"/>
	<g transform="translate(517.82 163)">
		<defs>
			<filter id="Adobe_OpacityMaskFilter" filterUnits="userSpaceOnUse" x="0" y="0" width="116.1" height="211">
				<feColorMatrix  type="matrix" values="1 0 0 0 0  0 1 0 0 0  0 0 1 0 0  0 0 0 1 0"/>
			</filter>
		</defs>
		
			<mask maskUnits="userSpaceOnUse" x="0" y="0" width="116.1" height="211" id="i7l01sm4zd_00000077297328580113238280000016292439184392413319_">
			<g class="st1">
				<path id="okteo80u5c_00000138561073140606496400000002307692013269123474_" class="st2" d="M0,0h116.1v211H0V0z"/>
			</g>
		</mask>
		<path class="st3" d="M116.1,3.3v86.5c0,31.9-26,72.4-58,90.6L5.8,210.1c-3.2,1.8-5.8,0.7-5.8-2.5V69.2c0-3.2,2.6-7.2,5.8-9.1
			L110.3,0.9C113.5-0.9,116.1,0.2,116.1,3.3"/>
	</g>
	<g transform="translate(450.521 163)">
		<defs>
			
				<filter id="Adobe_OpacityMaskFilter_00000085948700004337021770000015839619301905994139_" filterUnits="userSpaceOnUse" x="0" y="0" width="116.1" height="211">
				<feColorMatrix  type="matrix" values="1 0 0 0 0  0 1 0 0 0  0 0 1 0 0  0 0 0 1 0"/>
			</filter>
		</defs>
		
			<mask maskUnits="userSpaceOnUse" x="0" y="0" width="116.1" height="211" id="u66vks8lcg_00000146494503656771693630000011072656799417898681_">
			<g style="filter:url(#Adobe_OpacityMaskFilter_00000085948700004337021770000015839619301905994139_);">
				<path id="mnn52gp3tf_00000070082437958661239380000012543543868507090821_" class="st2" d="M0,0h116.1v211H0V0z"/>
			</g>
		</mask>
		<path class="st5" d="M116.1,3.3v86.5c0,31.9-26,72.4-58,90.6L5.8,210.1c-3.2,1.8-5.8,0.7-5.8-2.5V69.2c0-3.2,2.6-7.2,5.8-9.1
			L110.3,0.9C113.5-0.9,116.1,0.2,116.1,3.3"/>
	</g>
	<g transform="translate(384.197 163)">
		<defs>
			
				<filter id="Adobe_OpacityMaskFilter_00000170981965457501971770000016756647875218470037_" filterUnits="userSpaceOnUse" x="0" y="0" width="116.1" height="211">
				<feColorMatrix  type="matrix" values="1 0 0 0 0  0 1 0 0 0  0 0 1 0 0  0 0 0 1 0"/>
			</filter>
		</defs>
		
			<mask maskUnits="userSpaceOnUse" x="0" y="0" width="116.1" height="211" id="ns20behv0j_00000022559315968294167850000012656821907538983834_">
			<g style="filter:url(#Adobe_OpacityMaskFilter_00000170981965457501971770000016756647875218470037_);">
				<path id="_x31_fl6b9227i_00000127025072278057725310000006029906190668462779_" class="st2" d="M0,0h116.1v211H0V0z"/>
			</g>
		</mask>
		<path class="st7" d="M116.1,3.3v86.5c0,31.9-26,72.4-58,90.6L5.8,210.1c-3.2,1.8-5.8,0.7-5.8-2.5V69.2c0-3.2,2.6-7.2,5.8-9.1
			L110.3,0.9C113.5-0.9,116.1,0.2,116.1,3.3"/>
	</g>
	<g transform="translate(315.923 163)">
		<defs>
			
				<filter id="Adobe_OpacityMaskFilter_00000130639838649891130060000009516897287779650184_" filterUnits="userSpaceOnUse" x="0" y="0" width="116.1" height="211">
				<feColorMatrix  type="matrix" values="1 0 0 0 0  0 1 0 0 0  0 0 1 0 0  0 0 0 1 0"/>
			</filter>
		</defs>
		
			<mask maskUnits="userSpaceOnUse" x="0" y="0" width="116.1" height="211" id="_x31_gxvx237dm_00000084525395691807925040000008687100242890020751_">
			<g style="filter:url(#Adobe_OpacityMaskFilter_00000130639838649891130060000009516897287779650184_);">
				<path id="_x30_cs4hop3il_00000016777042975750820130000015774611516741919414_" class="st2" d="M0,0h116.1v211H0V0z"/>
			</g>
		</mask>
		<path class="st9" d="M116.1,3.3v86.5c0,31.9-26,72.4-58,90.6L5.8,210.1c-3.2,1.8-5.8,0.7-5.8-2.5V69.2c0-3.2,2.6-7.2,5.8-9.1
			L110.3,0.9C113.5-0.9,116.1,0.2,116.1,3.3"/>
	</g>
	<g transform="translate(248.623 163)">
		<defs>
			
				<filter id="Adobe_OpacityMaskFilter_00000047026241645873970640000010194679936539017392_" filterUnits="userSpaceOnUse" x="0" y="0" width="116.1" height="211">
				<feColorMatrix  type="matrix" values="1 0 0 0 0  0 1 0 0 0  0 0 1 0 0  0 0 0 1 0"/>
			</filter>
		</defs>
		
			<mask maskUnits="userSpaceOnUse" x="0" y="0" width="116.1" height="211" id="wx26vj99bp_00000109709088470630440700000015166600041811123385_">
			<g style="filter:url(#Adobe_OpacityMaskFilter_00000047026241645873970640000010194679936539017392_);">
				<path id="_x39_zqsm1oyxo_00000003800892469786036590000004025246883519031220_" class="st2" d="M0,0h116.1v211H0V0z"/>
			</g>
		</mask>
		<path class="st11" d="M116.1,3.3v86.5c0,31.9-26,72.4-58,90.6L5.8,210.1c-3.2,1.8-5.8,0.7-5.8-2.5V69.2c0-3.2,2.6-7.2,5.8-9.1
			L110.3,0.9C113.5-0.9,116.1,0.2,116.1,3.3"/>
	</g>
	<path class="st12" d="M298.4,166.4v86.5c0,31.9-26,72.4-58,90.6l-52.2,29.6c-3.2,1.8-5.8,0.7-5.8-2.5V232.2c0-3.2,2.6-7.2,5.8-9.1
		l104.5-59.3C295.8,162.1,298.4,163.2,298.4,166.4"/>
	<g transform="translate(115 163)">
		<defs>
			
				<filter id="Adobe_OpacityMaskFilter_00000089547253114324524680000000159355202898351781_" filterUnits="userSpaceOnUse" x="0" y="0" width="116.1" height="211">
				<feColorMatrix  type="matrix" values="1 0 0 0 0  0 1 0 0 0  0 0 1 0 0  0 0 0 1 0"/>
			</filter>
		</defs>
		
			<mask maskUnits="userSpaceOnUse" x="0" y="0" width="116.1" height="211" id="dupbs6velt_00000090292542779436208990000008176775215278490503_">
			<g style="filter:url(#Adobe_OpacityMaskFilter_00000089547253114324524680000000159355202898351781_);">
				<path id="va4188lbhs_00000021118971792066198660000008705924771857794999_" class="st2" d="M0,0h116.1v211H0V0z"/>
			</g>
		</mask>
		<path class="st14" d="M116.1,3.3v86.5c0,31.9-26,72.4-58,90.6L5.8,210.1c-3.2,1.8-5.8,0.7-5.8-2.5V69.2c0-3.2,2.6-7.2,5.8-9.1
			L110.3,0.9C113.5-0.9,116.1,0.2,116.1,3.3"/>
	</g>
	
		<linearGradient id="SVGID_00000052083239551613385420000009291941266825717692_" gradientUnits="userSpaceOnUse" x1="-183.9392" y1="770.6746" x2="-184.2859" y2="770.6746" gradientTransform="matrix(485 0 0 -63 89655 48683.5)">
		<stop  offset="0" style="stop-color:#FFFFFF"/>
		<stop  offset="1" style="stop-color:#DADEE3"/>
	</linearGradient>
	<path style="fill:url(#SVGID_00000052083239551613385420000009291941266825717692_);" d="M528,163.5H115c-0.6,0-1-0.4-1-1
		s0.4-1,1-1h413c0.6,0,1,0.4,1,1S528.6,163.5,528,163.5z M600,100.5H187c-0.6,0-1-0.4-1-1s0.4-1,1-1h413c0.6,0,1,0.4,1,1
		S600.6,100.5,600,100.5z"/>
	<g transform="translate(677.827)">
		<defs>
			
				<filter id="Adobe_OpacityMaskFilter_00000171698343241681227090000004394510186277451151_" filterUnits="userSpaceOnUse" x="0" y="0" width="116.1" height="211">
				<feColorMatrix  type="matrix" values="1 0 0 0 0  0 1 0 0 0  0 0 1 0 0  0 0 0 1 0"/>
			</filter>
		</defs>
		
			<mask maskUnits="userSpaceOnUse" x="0" y="0" width="116.1" height="211" id="_x37_prj2v6q9v_00000128466653490977805600000004546508503079798205_">
			<g style="filter:url(#Adobe_OpacityMaskFilter_00000171698343241681227090000004394510186277451151_);">
				<path id="_x30_ozp2ouedu_00000108304842585097772780000002219174642200525696_" class="st2" d="M0,0h116.1v211H0V0z"/>
			</g>
		</mask>
		<path class="st17" d="M116.1,3.3v86.5c0,31.9-26,72.4-58,90.6L5.8,210.1c-3.2,1.8-5.8,0.7-5.8-2.5V69.2c0-3.2,2.6-7.2,5.8-9.1
			L110.3,0.9C113.5-0.9,116.1,0.2,116.1,3.3"/>
	</g>
	<g transform="translate(611.506)">
		<defs>
			
				<filter id="Adobe_OpacityMaskFilter_00000094620580452530731780000006835108844518403219_" filterUnits="userSpaceOnUse" x="0" y="0" width="116.1" height="211">
				<feColorMatrix  type="matrix" values="1 0 0 0 0  0 1 0 0 0  0 0 1 0 0  0 0 0 1 0"/>
			</filter>
		</defs>
		
			<mask maskUnits="userSpaceOnUse" x="0" y="0" width="116.1" height="211" id="_x33_4q81mfx1x_00000047020628571632421050000001797714594524784782_">
			<g style="filter:url(#Adobe_OpacityMaskFilter_00000094620580452530731780000006835108844518403219_);">
				<path id="gl6ndlroyw_00000065772320649525553820000000762828630348133522_" class="st2" d="M0,0h116.1v211H0V0z"/>
			</g>
		</mask>
		<path class="st19" d="M116.1,3.3v86.5c0,31.9-26,72.4-58,90.6L5.8,210.1c-3.2,1.8-5.8,0.7-5.8-2.5V69.2c0-3.2,2.6-7.2,5.8-9.1
			L110.3,0.9C113.5-0.9,116.1,0.2,116.1,3.3"/>
	</g>
	<g transform="translate(544.21)">
		<defs>
			
				<filter id="Adobe_OpacityMaskFilter_00000042006481987754526010000010472428223464225723_" filterUnits="userSpaceOnUse" x="0" y="0" width="116.1" height="211">
				<feColorMatrix  type="matrix" values="1 0 0 0 0  0 1 0 0 0  0 0 1 0 0  0 0 0 1 0"/>
			</filter>
		</defs>
		
			<mask maskUnits="userSpaceOnUse" x="0" y="0" width="116.1" height="211" id="gi2x7ys5rA_00000034777438401156571910000000056653476828562351_">
			<g style="filter:url(#Adobe_OpacityMaskFilter_00000042006481987754526010000010472428223464225723_);">
				<path id="c8hxqysfhz_00000012454192440690232650000003951668754370314156_" class="st2" d="M0,0h116.1v211H0V0z"/>
			</g>
		</mask>
		<path class="st21" d="M116.1,3.3v86.5c0,31.9-26,72.4-58,90.6L5.8,210.1c-3.2,1.8-5.8,0.7-5.8-2.5V69.2c0-3.2,2.6-7.2,5.8-9.1
			L110.3,0.9C113.5-0.9,116.1,0.2,116.1,3.3"/>
	</g>
	<g transform="translate(476.914)">
		<defs>
			
				<filter id="Adobe_OpacityMaskFilter_00000025414159125418807990000014327586392321330076_" filterUnits="userSpaceOnUse" x="0" y="0" width="116.1" height="211">
				<feColorMatrix  type="matrix" values="1 0 0 0 0  0 1 0 0 0  0 0 1 0 0  0 0 0 1 0"/>
			</filter>
		</defs>
		
			<mask maskUnits="userSpaceOnUse" x="0" y="0" width="116.1" height="211" id="r0gpjoo14D_00000060027967135985495670000005628943730296274604_">
			<g style="filter:url(#Adobe_OpacityMaskFilter_00000025414159125418807990000014327586392321330076_);">
				<path id="mllvnery1C_00000030453912805254531010000017846479620278329239_" class="st2" d="M0,0h116.1v211H0V0z"/>
			</g>
		</mask>
		<path class="st23" d="M116.1,3.3v86.5c0,31.9-26,72.4-58,90.6L5.8,210.1c-3.2,1.8-5.8,0.7-5.8-2.5V69.2c0-3.2,2.6-7.2,5.8-9.1
			L110.3,0.9C113.5-0.9,116.1,0.2,116.1,3.3"/>
	</g>
	<g transform="translate(409.617)">
		<defs>
			
				<filter id="Adobe_OpacityMaskFilter_00000031924594102670803390000002598879802973698463_" filterUnits="userSpaceOnUse" x="0" y="0" width="116.1" height="211">
				<feColorMatrix  type="matrix" values="1 0 0 0 0  0 1 0 0 0  0 0 1 0 0  0 0 0 1 0"/>
			</filter>
		</defs>
		
			<mask maskUnits="userSpaceOnUse" x="0" y="0" width="116.1" height="211" id="_x38_wp73x394G_00000165916567439285232170000003867294909387214492_">
			<g style="filter:url(#Adobe_OpacityMaskFilter_00000031924594102670803390000002598879802973698463_);">
				<path id="nqta67t31F_00000049925273662493648120000012244451669884710034_" class="st2" d="M0,0h116.1v211H0V0z"/>
			</g>
		</mask>
		<path class="st25" d="M116.1,3.3v86.5c0,31.9-26,72.4-58,90.6L5.8,210.1c-3.2,1.8-5.8,0.7-5.8-2.5V69.2c0-3.2,2.6-7.2,5.8-9.1
			L110.3,0.9C113.5-0.9,116.1,0.2,116.1,3.3"/>
	</g>
	<g transform="translate(342.321)">
		<defs>
			
				<filter id="Adobe_OpacityMaskFilter_00000104666495682384413870000012982974035890236577_" filterUnits="userSpaceOnUse" x="0" y="0" width="116.1" height="211">
				<feColorMatrix  type="matrix" values="1 0 0 0 0  0 1 0 0 0  0 0 1 0 0  0 0 0 1 0"/>
			</filter>
		</defs>
		
			<mask maskUnits="userSpaceOnUse" x="0" y="0" width="116.1" height="211" id="cvqtskf09J_00000001635324531976045370000002570839659720475794_">
			<g style="filter:url(#Adobe_OpacityMaskFilter_00000104666495682384413870000012982974035890236577_);">
				<path id="p8zkonb11I_00000013184970406184270030000014901692029019977345_" class="st2" d="M0,0h116.1v211H0V0z"/>
			</g>
		</mask>
		<path class="st27" d="M116.1,3.3v86.5c0,31.9-26,72.4-58,90.6L5.8,210.1c-3.2,1.8-5.8,0.7-5.8-2.5V69.2c0-3.2,2.6-7.2,5.8-9.1
			L110.3,0.9C113.5-0.9,116.1,0.2,116.1,3.3"/>
	</g>
	<g transform="translate(276)">
		<defs>
			
				<filter id="Adobe_OpacityMaskFilter_00000014600514223244960200000016594500790291739524_" filterUnits="userSpaceOnUse" x="0" y="0" width="116.1" height="211">
				<feColorMatrix  type="matrix" values="1 0 0 0 0  0 1 0 0 0  0 0 1 0 0  0 0 0 1 0"/>
			</filter>
		</defs>
		
			<mask maskUnits="userSpaceOnUse" x="0" y="0" width="116.1" height="211" id="yitl6e8xrM_00000055667082531504118430000017953266210936026757_">
			<g style="filter:url(#Adobe_OpacityMaskFilter_00000014600514223244960200000016594500790291739524_);">
				<path id="kxsxvt9p3L_00000067209093175509537050000005306280906040086663_" class="st2" d="M0,0h116.1v211H0V0z"/>
			</g>
		</mask>
		<path class="st29" d="M116.1,3.3v86.5c0,31.9-26,72.4-58,90.6L5.8,210.1c-3.2,1.8-5.8,0.7-5.8-2.5V69.2c0-3.2,2.6-7.2,5.8-9.1
			L110.3,0.9C113.5-0.9,116.1,0.2,116.1,3.3"/>
	</g>
	
		<linearGradient id="SVGID_00000065073034040330635450000009648645504848328849_" gradientUnits="userSpaceOnUse" x1="-183.8726" y1="472" x2="-184.2195" y2="472" gradientTransform="matrix(413 0 0 -1 76407 884.5)">
		<stop  offset="0" style="stop-color:#FFFFFF"/>
		<stop  offset="1" style="stop-color:#DADEE3"/>
	</linearGradient>
	<path style="fill:url(#SVGID_00000065073034040330635450000009648645504848328849_);" d="M600,413.5H187c-0.6,0-1-0.4-1-1
		s0.4-1,1-1h413c0.6,0,1,0.4,1,1S600.6,413.5,600,413.5z"/>
	
		<linearGradient id="SVGID_00000023986819255638116380000014782299838535998875_" gradientUnits="userSpaceOnUse" x1="-183.8449" y1="472" x2="-184.1919" y2="472" gradientTransform="matrix(389 0 0 -1 72039 940.5)">
		<stop  offset="0" style="stop-color:#FFFFFF"/>
		<stop  offset="1" style="stop-color:#DADEE3"/>
	</linearGradient>
	<path style="fill:url(#SVGID_00000023986819255638116380000014782299838535998875_);" d="M648,469.5H259c-0.6,0-1-0.4-1-1
		s0.4-1,1-1h389c0.6,0,1,0.4,1,1S648.6,469.5,648,469.5z"/>
	<g>
		<g transform="translate(646.521 214)">
			<defs>
				
					<filter id="Adobe_OpacityMaskFilter_00000131363164614613094470000005878594726998312634_" filterUnits="userSpaceOnUse" x="0" y="0" width="116.1" height="211">
					<feColorMatrix  type="matrix" values="1 0 0 0 0  0 1 0 0 0  0 0 1 0 0  0 0 0 1 0"/>
				</filter>
			</defs>
			
				<mask maskUnits="userSpaceOnUse" x="0" y="0" width="116.1" height="211" id="sftkxmoqeP_00000178204256958947127870000008177179451887805627_">
				<g style="filter:url(#Adobe_OpacityMaskFilter_00000131363164614613094470000005878594726998312634_);">
					<path id="ljjb6t5j7O_00000013189101035509412060000015523331740897725585_" class="st2" d="M0,0h116.1v211H0V0z"/>
				</g>
			</mask>
			<path class="st33" d="M116.1,3.3v86.5c0,31.9-26,72.4-58,90.6L5.8,210.1c-3.2,1.8-5.8,0.7-5.8-2.5V69.2c0-3.2,2.6-7.2,5.8-9.1
				L110.3,0.9C113.5-0.9,116.1,0.2,116.1,3.3"/>
		</g>
		<g transform="translate(580.197 214)">
			<defs>
				
					<filter id="Adobe_OpacityMaskFilter_00000135670973379166948230000004119168514623659429_" filterUnits="userSpaceOnUse" x="0" y="0" width="116.1" height="211">
					<feColorMatrix  type="matrix" values="1 0 0 0 0  0 1 0 0 0  0 0 1 0 0  0 0 0 1 0"/>
				</filter>
			</defs>
			
				<mask maskUnits="userSpaceOnUse" x="0" y="0" width="116.1" height="211" id="_x39_6gohg4hiR_00000042004445505025311180000007342039456054912652_">
				<g style="filter:url(#Adobe_OpacityMaskFilter_00000135670973379166948230000004119168514623659429_);">
					<path id="n2r34l53rQ_00000045602740198857798980000005057636305851142327_" class="st2" d="M0,0h116.1v211H0V0z"/>
				</g>
			</mask>
			<path class="st35" d="M116.1,3.3v86.5c0,31.9-26,72.4-58,90.6L5.8,210.1c-3.2,1.8-5.8,0.7-5.8-2.5V69.2c0-3.2,2.6-7.2,5.8-9.1
				L110.3,0.9C113.5-0.9,116.1,0.2,116.1,3.3"/>
		</g>
		<g transform="translate(511.923 214)">
			<defs>
				
					<filter id="Adobe_OpacityMaskFilter_00000176761725710370591670000018390389010696684185_" filterUnits="userSpaceOnUse" x="0" y="0" width="116.1" height="211">
					<feColorMatrix  type="matrix" values="1 0 0 0 0  0 1 0 0 0  0 0 1 0 0  0 0 0 1 0"/>
				</filter>
			</defs>
			
				<mask maskUnits="userSpaceOnUse" x="0" y="0" width="116.1" height="211" id="_x39_wzjuchq1U_00000181792166483911412910000013035353037293755281_">
				<g style="filter:url(#Adobe_OpacityMaskFilter_00000176761725710370591670000018390389010696684185_);">
					<path id="_x32_85a67h6uT_00000160157119827022611200000011457536096165327253_" class="st2" d="M0,0h116.1v211H0V0z"/>
				</g>
			</mask>
			<path class="st37" d="M116.1,3.3v86.5c0,31.9-26,72.4-58,90.6L5.8,210.1c-3.2,1.8-5.8,0.7-5.8-2.5V69.2c0-3.2,2.6-7.2,5.8-9.1
				L110.3,0.9C113.5-0.9,116.1,0.2,116.1,3.3"/>
		</g>
		<g transform="translate(445.599 214)">
			<defs>
				
					<filter id="Adobe_OpacityMaskFilter_00000075867159792188504160000014931127285658527360_" filterUnits="userSpaceOnUse" x="0" y="0" width="116.1" height="211">
					<feColorMatrix  type="matrix" values="1 0 0 0 0  0 1 0 0 0  0 0 1 0 0  0 0 0 1 0"/>
				</filter>
			</defs>
			
				<mask maskUnits="userSpaceOnUse" x="0" y="0" width="116.1" height="211" id="p0fw5q4qzX_00000098194522822320065480000004252041682979186308_">
				<g style="filter:url(#Adobe_OpacityMaskFilter_00000075867159792188504160000014931127285658527360_);">
					<path id="zti3y8ik0W_00000078736487334722500680000005464305953575244221_" class="st2" d="M0,0h116.1v211H0V0z"/>
				</g>
			</mask>
			<path class="st39" d="M116.1,3.3v86.5c0,31.9-26,72.4-58,90.6L5.8,210.1c-3.2,1.8-5.8,0.7-5.8-2.5V69.2c0-3.2,2.6-7.2,5.8-9.1
				L110.3,0.9C113.5-0.9,116.1,0.2,116.1,3.3"/>
		</g>
		<g transform="translate(378.3 214)">
			<defs>
				
					<filter id="Adobe_OpacityMaskFilter_00000132086303017663892430000017759471806611264431_" filterUnits="userSpaceOnUse" x="0" y="0" width="116.1" height="211">
					<feColorMatrix  type="matrix" values="1 0 0 0 0  0 1 0 0 0  0 0 1 0 0  0 0 0 1 0"/>
				</filter>
			</defs>
			
				<mask maskUnits="userSpaceOnUse" x="0" y="0" width="116.1" height="211" id="_x39_zp0y7a43aa_00000094619257382515609620000009383319377674007948_">
				<g style="filter:url(#Adobe_OpacityMaskFilter_00000132086303017663892430000017759471806611264431_);">
					<path id="_x38_ccu2n454Z_00000061463244431410078850000004855776796165463186_" class="st2" d="M0,0h116.1v211H0V0z"/>
				</g>
			</mask>
			<path class="st41" d="M116.1,3.3v86.5c0,31.9-26,72.4-58,90.6L5.8,210.1c-3.2,1.8-5.8,0.7-5.8-2.5V69.2c0-3.2,2.6-7.2,5.8-9.1
				L110.3,0.9C113.5-0.9,116.1,0.2,116.1,3.3"/>
		</g>
		<g transform="translate(311 214)">
			<defs>
				
					<filter id="Adobe_OpacityMaskFilter_00000117663097024553875040000012617261821893138826_" filterUnits="userSpaceOnUse" x="0" y="0" width="116.1" height="211">
					<feColorMatrix  type="matrix" values="1 0 0 0 0  0 1 0 0 0  0 0 1 0 0  0 0 0 1 0"/>
				</filter>
			</defs>
			
				<mask maskUnits="userSpaceOnUse" x="0" y="0" width="116.1" height="211" id="xr9yy3fi7ad_00000178887137415015485280000014774522700365812895_">
				<g style="filter:url(#Adobe_OpacityMaskFilter_00000117663097024553875040000012617261821893138826_);">
					<path id="_x33_658umqaeac_00000142137389359986386760000004254206846785891481_" class="st2" d="M0,0h116.1v211H0V0z"/>
				</g>
			</mask>
			<path class="st43" d="M116.1,3.3v86.5c0,31.9-26,72.4-58,90.6L5.8,210.1c-3.2,1.8-5.8,0.7-5.8-2.5V69.2c0-3.2,2.6-7.2,5.8-9.1
				L110.3,0.9C113.5-0.9,116.1,0.2,116.1,3.3"/>
		</g>
	</g>
	<g>
		<circle class="st44" cx="244" cy="468" r="1.5"/>
		<path class="st45" d="M244,470c-1.1,0-2-0.9-2-2s0.9-2,2-2s2,0.9,2,2S245.1,470,244,470z M244,467c-0.6,0-1,0.4-1,1s0.4,1,1,1
			s1-0.4,1-1S244.6,467,244,467z"/>
	</g>
	<g>
		<circle class="st44" cx="221" cy="469" r="1.5"/>
		<path class="st45" d="M221,471c-1.1,0-2-0.9-2-2s0.9-2,2-2s2,0.9,2,2S222.1,471,221,471z M221,468c-0.6,0-1,0.4-1,1s0.4,1,1,1
			s1-0.4,1-1S221.6,468,221,468z"/>
	</g>
	<g>
		<circle class="st44" cx="203" cy="469" r="1.5"/>
		<path class="st45" d="M203,471c-1.1,0-2-0.9-2-2s0.9-2,2-2s2,0.9,2,2S204.1,471,203,471z M203,468c-0.6,0-1,0.4-1,1s0.4,1,1,1
			s1-0.4,1-1S203.6,468,203,468z"/>
	</g>
	<g>
		<circle class="st44" cx="94" cy="162" r="1.5"/>
		<path class="st45" d="M94,164c-1.1,0-2-0.9-2-2s0.9-2,2-2s2,0.9,2,2S95.1,164,94,164z M94,161c-0.6,0-1,0.4-1,1s0.4,1,1,1
			s1-0.4,1-1S94.6,161,94,161z"/>
	</g>
	<g>
		<circle class="st44" cx="76" cy="162" r="1.5"/>
		<path class="st45" d="M76,164c-1.1,0-2-0.9-2-2s0.9-2,2-2s2,0.9,2,2S77.1,164,76,164z M76,161c-0.6,0-1,0.4-1,1s0.4,1,1,1
			s1-0.4,1-1S76.6,161,76,161z"/>
	</g>
	<g>
		<circle class="st44" cx="174" cy="100" r="1.5"/>
		<path class="st45" d="M174,102c-1.1,0-2-0.9-2-2s0.9-2,2-2s2,0.9,2,2S175.1,102,174,102z M174,99c-0.6,0-1,0.4-1,1s0.4,1,1,1
			s1-0.4,1-1S174.6,99,174,99z"/>
	</g>
	<g>
		<circle class="st44" cx="154" cy="100" r="1.5"/>
		<path class="st45" d="M154,102c-1.1,0-2-0.9-2-2s0.9-2,2-2s2,0.9,2,2S155.1,102,154,102z M154,99c-0.6,0-1,0.4-1,1s0.4,1,1,1
			s1-0.4,1-1S154.6,99,154,99z"/>
	</g>
	<g>
		<circle class="st44" cx="140" cy="100" r="1.5"/>
		<path class="st45" d="M140,102c-1.1,0-2-0.9-2-2s0.9-2,2-2s2,0.9,2,2S141.1,102,140,102z M140,99c-0.6,0-1,0.4-1,1s0.4,1,1,1
			s1-0.4,1-1S140.6,99,140,99z"/>
	</g>
	<g>
		<circle class="st44" cx="175" cy="412" r="1.5"/>
		<path class="st45" d="M175,414c-1.1,0-2-0.9-2-2s0.9-2,2-2s2,0.9,2,2S176.1,414,175,414z M175,411c-0.6,0-1,0.4-1,1s0.4,1,1,1
			s1-0.4,1-1S175.6,411,175,411z"/>
	</g>
	<g>
		<circle class="st44" cx="155" cy="412" r="1.5"/>
		<path class="st45" d="M155,414c-1.1,0-2-0.9-2-2s0.9-2,2-2s2,0.9,2,2S156.1,414,155,414z M155,411c-0.6,0-1,0.4-1,1s0.4,1,1,1
			s1-0.4,1-1S155.6,411,155,411z"/>
	</g>
	<g>
		<circle class="st44" cx="21" cy="302" r="1.5"/>
		<path class="st45" d="M21,304c-1.1,0-2-0.9-2-2s0.9-2,2-2s2,0.9,2,2S22.1,304,21,304z M21,301c-0.6,0-1,0.4-1,1s0.4,1,1,1
			s1-0.4,1-1S21.6,301,21,301z"/>
	</g>
	<g>
		<circle class="st44" cx="2" cy="302" r="1.5"/>
		<path class="st45" d="M2,304c-1.1,0-2-0.9-2-2s0.9-2,2-2s2,0.9,2,2S3.1,304,2,304z M2,301c-0.6,0-1,0.4-1,1s0.4,1,1,1s1-0.4,1-1
			S2.6,301,2,301z"/>
	</g>
	<g>
		<circle class="st44" cx="40" cy="302" r="1.5"/>
		<path class="st45" d="M40,304c-1.1,0-2-0.9-2-2s0.9-2,2-2s2,0.9,2,2S41.1,304,40,304z M40,301c-0.6,0-1,0.4-1,1s0.4,1,1,1
			s1-0.4,1-1S40.6,301,40,301z"/>
	</g>
</g>
</svg>
